<svg width="2048" height="2048" viewBox="0 0 2048 2048" fill="none" xmlns="http://www.w3.org/2000/svg">
<g id="DB">
<path id="Dientes" d="M1221.7 1382.7C1219.9 1395 1213.6 1422.89 1202 1427.5C1193.5 1430.88 1187.6 1429.35 1178.8 1428.5C1174.5 1441.8 1158 1445.49 1144.2 1436.88C1139.7 1446.33 1115.4 1448.41 1104.6 1446.87C1102.9 1446.64 1099.7 1443.95 1098.6 1444.56C1096.6 1449.18 1093.5 1451.25 1088.6 1453.79C1086.3 1454.56 1084 1454.4 1081.6 1454.56C1079.2 1454.71 1080.9 1454.56 1080.6 1454.56C1067.4 1455.63 1052.3 1456.71 1039.1 1456.09C1029.8 1455.71 1029.7 1455.25 1020.1 1456.02C1006.2 1457.09 990.9 1456.56 976.7 1456.86C962.5 1457.17 975.4 1456.86 974.7 1456.86C971.5 1455.17 967.1 1455.56 963.8 1454.1C960.5 1452.64 958.4 1448.87 957 1448.48C955.6 1448.1 942.7 1449.33 939.1 1449.18C930.5 1448.87 913.7 1447.64 911.6 1439.95C909.3 1439.72 908.5 1441.64 906.3 1442.41C895.1 1446.56 881.5 1445.72 876 1436.19C872.5 1436.34 869.9 1437.19 866.2 1436.88C862.4 1436.57 846.1 1429.96 842.7 1428.04C833.8 1423.04 830.8 1403.1 828.6 1392.8C839.3 1393.3 849.9 1393.2 860.6 1393.8L870.1 1405.8L871.6 1394.8C884.4 1393.1 890.1 1395.1 902.6 1395.8L908.1 1406.8L912.6 1395.8C926.7 1395.7 936 1395 950.6 1396.8C953.5 1402.1 956 1407.7 956.6 1413.8C958.1 1415.4 958.4 1413.6 958.6 1412.3C959.4 1407.2 959 1403.3 962.6 1398.8C982.5 1401.7 1002.3 1406.3 1022.6 1406.8L1028.1 1417.8L1032.6 1406.8C1038.5 1406.3 1086.2 1398.4 1088.6 1396.8C1093.8 1396.2 1094.8 1406.7 1095.6 1410.3C1096.4 1413.9 1094.9 1412 1097.6 1411.8L1103.6 1394.8C1115 1393.4 1126.8 1391 1138.6 1389.8L1145.1 1403.8L1153.6 1388.8C1162.9 1387.9 1172.3 1386.8 1181.6 1385.8L1182.1 1391.8L1188.6 1385.8C1199.5 1384.7 1210.7 1384 1221.6 1382.8L1221.7 1382.7Z" fill="#CCCCCC"/>
</g>
</svg>
