<svg width="2048" height="2048" viewBox="0 0 2048 2048" fill="none" xmlns="http://www.w3.org/2000/svg">
<g id="PE">
<path id="Pelo" d="M434.1 713.2C430.3 649.3 431.3 584.2 441.3 521C442.8 495.5 432.2 459.9 455.4 440.5C449.9 413.8 442.9 385.4 462.8 362.6C502.4 345.7 476.8 285.6 526.9 278.1C522.1 198.6 601.2 228.1 620.6 168.9C643 135.8 682.7 128.3 720.1 122.5C743.2 74.5 791.8 74.1 837.2 72.5C867.7 53 899.9 38.5 934.4 58.9C968.4 18.8 1016.8 35.3 1057 51.8C1155.7 12.8 1123.5 71.8 1185.1 56.1C1209.3 53.6 1209.4 64.9 1225.4 76C1245.2 88.9 1271.2 67.1 1279.5 94.4C1309.3 100.9 1330.6 96.4 1345 132.6C1376.7 117.6 1396.4 140.1 1408.3 167.1C1434.8 167.7 1464.5 173.3 1460.5 207.1C1490.6 206.3 1492.2 237.2 1502.5 256.5C1528.9 277.1 1578.6 299 1562.5 342C1602.6 364.2 1610.4 401.2 1595.3 442.5C1614.7 482.1 1592.1 519.6 1603.4 560.5C1606.2 617.3 1617.3 680.5 1602.2 735.6C1600.8 677.4 1444.7 479.9 1442.6 439.7C1218.7 309.1 846.1 321.3 611.4 428.2C606.1 434 599.6 466.8 598 475.9C573.7 487.2 536.3 511.6 521.5 533.6C505.5 565.6 475.2 599.6 466.3 634.9C453.8 659.6 459.9 699.2 434.2 713L434.1 713.2Z" fill="#FF0000"/>
<g id="PeloSom">
<path d="M1459.9 481.5C1462.1 481.2 1463.1 482.4 1464.7 483.3C1486.5 496 1570.6 577.401 1608.2 716.4C1605.2 768 1616.4 866.9 1605.9 917.4C1592.21 928.292 1524.82 1018.55 1524.7 1018.7L1514.1 880.101C1509.3 840.401 1469.5 750.2 1462.2 689.4C1460.8 677.8 1464.9 509.402 1459.8 481.601L1459.9 481.5Z" fill="#9900FF"/>
<path d="M593.4 477.9C594.948 477.03 595.934 475.879 597.986 476.075C592.893 504.065 588.995 651.609 582.7 661.4C569 682.601 531.6 827.5 526.8 867.2L512.5 1001.7C512.5 1001.7 465.7 922.701 452 911.9C441.5 861.4 437.1 764.7 434.2 713.2C437.5 713.8 448.5 703.5 448.7 701.6C461.3 537.1 571.5 490.5 593.4 477.9Z" fill="#9900FF"/>
<path d="M598.2 476.1C598.128 476.09 598.056 476.082 597.986 476.075C597.991 476.05 597.995 476.025 598 476L598.2 476.1Z" fill="#9900FF"/>
</g>
</g>
</svg>
