<svg width="2048" height="2048" viewBox="0 0 2048 2048" fill="none" xmlns="http://www.w3.org/2000/svg">
<g id="PL">
<path id="Pelo" d="M1601.8 459.901C1313.7 -353.999 39.0009 189.501 481.301 968.301C524.601 1115.1 504.101 834.601 526.601 800.801C540.601 754.501 585.001 720.301 581.901 669.801C567.201 577.501 572.301 490.401 553.401 401.301C608.301 214.301 792.301 228.801 954.801 277.001C1143.3 268.801 1557.7 178.301 1469.9 501.701C1469.9 561.501 1440.5 614.301 1445.7 673.301C1442.5 735.601 1512.8 775.501 1511.8 841.401C1515.6 840.101 1524.7 1047.5 1542.1 1021.8C1601.8 851.201 1656.5 761.201 1601.9 459.701L1601.8 459.901Z" fill="#FF0000"/>
</g>
</svg>
