<svg width="2048" height="2048" viewBox="0 0 2048 2048" fill="none" xmlns="http://www.w3.org/2000/svg">
<g id="ORB">
<g id="Piel">
<path fill-rule="evenodd" clip-rule="evenodd" d="M363.8 899.8C383.1 864.2 414.8 849.8 466.6 869.4C510.6 886 525.1 908.8 531.4 939C535.9 960.599 556.4 973.4 560.1 994.9C565.4 1026.1 551.4 1080.5 553.1 1113C554.8 1145.4 531.5 1177.9 535.9 1210.1L510.6 1194.3C467.5 1181.7 470.2 1210.1 450.4 1210.1C352.4 1210.1 321.8 977.2 363.8 899.7V899.8ZM445 1037.4C445.2 1037.1 445.5 1036.8 445.8 1036.6C445.6 1035.7 445.5 1034.9 445.3 1034C445.2 1035.1 445.1 1036.3 445 1037.4Z" fill="#FF6699"/>
<path fill-rule="evenodd" clip-rule="evenodd" d="M1587 869.4C1638.8 849.8 1670.5 864.2 1689.8 899.8V899.7C1731.8 977.2 1701.2 1210.1 1603.2 1210.1C1583.4 1210.1 1586.1 1181.7 1543 1194.3L1517.7 1210.1C1522.1 1177.9 1498.8 1145.4 1500.5 1113C1502.2 1080.5 1488.2 1026.1 1493.5 994.9C1497.2 973.4 1517.7 960.599 1522.2 939C1528.5 908.8 1543 886 1587 869.4ZM1608.3 1034C1608.1 1034.9 1608 1035.7 1607.8 1036.6C1608.1 1036.8 1608.4 1037.1 1608.6 1037.4C1608.5 1036.3 1608.4 1035.1 1608.3 1034Z" fill="#FF6699"/>
</g>
<g id="Marcas">
<path d="M386.7 907.1C412.4 875.7 444.7 899.1 464.4 919C486.2 941 516.4 999.399 513.1 1025.7C511.3 1040.2 493.4 1048.8 491.4 1062.2C488.5 1082.2 506.4 1094.9 514 1112.3C515.7 1116.2 520.6 1126.9 512.4 1127.7C498.3 1129 486.6 1107.6 478.1 1101.8C465.1 1093.1 446 1095.8 433.5 1082.2C407.501 1053.8 443.4 1016.2 468.5 993.7C473.7 989 481.4 984.9 485 979.4C485.498 975.799 461.3 946.901 456.7 942.2C442.4 927.801 431.5 921 415.9 940.1C391.3 970 383.7 1022.1 388.1 1056C389 1063.1 391.601 1070.4 392.801 1077.6C393.001 1078.6 394.3 1080.7 391.9 1080.5L392 1080.4C387.2 1068.1 382 1055.8 378.4 1043.2C367.7 1005.6 358.6 941.3 386.7 907.1Z" fill="#6699CC"/>
<path d="M1589.2 919C1608.9 899.1 1641.2 875.7 1666.9 907.1C1695 941.3 1685.9 1005.6 1675.2 1043.2C1671.6 1055.8 1666.4 1068.1 1661.6 1080.4L1661.7 1080.5C1659.3 1080.7 1660.6 1078.6 1660.8 1077.6C1662 1070.4 1664.6 1063.1 1665.5 1056C1669.9 1022.1 1662.3 970 1637.7 940.1C1622.1 921 1611.2 927.8 1596.9 942.2C1592.3 946.902 1568.1 975.798 1568.6 979.4C1572.2 984.9 1579.9 989 1585.1 993.7C1610.2 1016.2 1646.1 1053.8 1620.1 1082.2C1607.6 1095.8 1588.5 1093.1 1575.5 1101.8C1567 1107.6 1555.3 1129 1541.2 1127.7C1533 1126.9 1537.9 1116.2 1539.6 1112.3C1547.2 1094.9 1565.1 1082.2 1562.2 1062.2C1560.2 1048.8 1542.3 1040.2 1540.5 1025.7C1537.2 999.399 1567.4 941 1589.2 919Z" fill="#6699CC"/>
</g>
</g>
</svg>
