<svg width="2048" height="2048" viewBox="0 0 2048 2048" fill="none" xmlns="http://www.w3.org/2000/svg">
<g id="ORG">
<g id="Piel">
<path d="M456 874.2C458.501 879.7 468 890.5 471.8 896.8C495.5 936.2 513.2 983.6 554.1 1006.8C575.1 1018.7 587.1 1055.4 587 1098.4C605.1 1261 516.1 1198.3 521.5 1265.7C504.901 1266.1 492.1 1246.7 481 1232.6C434 1173 465 1183.3 462 1124.8C459.5 1078.3 424.3 978.599 426.6 930.3C427.7 907.6 436.901 879.5 456 874.2Z" fill="#FF6699"/>
<path d="M1589.6 874.2C1608.7 879.5 1617.9 907.6 1619 930.3C1621.3 978.599 1586.1 1078.3 1583.6 1124.8C1580.6 1183.3 1611.6 1173 1564.6 1232.6C1553.5 1246.7 1540.7 1266.1 1524.1 1265.7C1529.5 1198.3 1440.5 1261 1458.6 1098.4C1458.5 1055.4 1470.5 1018.7 1491.5 1006.8C1532.4 983.6 1550.1 936.199 1573.8 896.8C1577.6 890.5 1587.1 879.7 1589.6 874.2Z" fill="#FF6699"/>
</g>
<g id="Marcas">
<path d="M502.4 1032.5C503.1 1031.2 503.1 1029.6 504.8 1030L504.7 1030.1C505.8 1037.6 509.7 1050.6 509.5 1057.1C509.199 1067.9 503.8 1081.4 503.2 1093.6C501.6 1123.3 517.8 1145.4 515.9 1171.6C515.7 1174.3 515.1 1178.1 512.7 1175.4C510 1172.4 505 1160.4 502.3 1155.8C496.1 1145.2 484.5 1130.6 482 1118.3C477.5 1095.9 492.7 1051.9 502.4 1032.5Z" fill="#6699CC"/>
<path d="M1540.9 1030C1542.6 1029.6 1542.6 1031.2 1543.3 1032.5C1553 1051.9 1568.2 1095.9 1563.7 1118.3C1561.2 1130.6 1549.6 1145.2 1543.4 1155.8C1540.7 1160.4 1535.7 1172.4 1533 1175.4C1530.6 1178.1 1530 1174.3 1529.8 1171.6C1527.9 1145.4 1544.1 1123.3 1542.5 1093.6C1541.9 1081.4 1536.5 1067.9 1536.2 1057.1C1536 1050.6 1539.9 1037.6 1541 1030.1L1540.9 1030Z" fill="#6699CC"/>
<path d="M440.501 917.7C442.401 894.3 454.201 909.1 461.001 918.6C476.5 940.3 488.3 967.001 495.9 994.6C493.6 993.201 491.301 990 489.501 987.6C484.001 980.1 479.7 970.7 472.1 966.1L460.6 1057.1C457.3 1049.9 455.9 1041.2 454.2 1033.1C448.2 1003.3 438 947.2 440.4 917.7H440.501Z" fill="#6699CC"/>
<path d="M1584.6 918.6C1591.4 909.1 1603.2 894.3 1605.1 917.7H1605.2C1607.6 947.2 1597.4 1003.3 1591.4 1033.1C1589.7 1041.2 1588.3 1049.9 1585 1057.1L1573.5 966.1C1565.9 970.7 1561.6 980.1 1556.1 987.6C1554.3 990 1552 993.2 1549.7 994.6C1557.3 967.001 1569.1 940.3 1584.6 918.6Z" fill="#6699CC"/>
</g>
</g>
</svg>
